<svg xmlns="http://www.w3.org/2000/svg" xmlns:xlink="http://www.w3.org/1999/xlink" version="1.1" x="0px" y="0px" viewBox="0 0 100 125" style="enable-background:new 0 0 100 100;" xml:space="preserve"><style type="text/css">
	.st0{display:none;}
	.st1{display:inline;}
	.st2{display:inline;fill:#00000C;}
	.st3{display:inline;fill:#FFFFFF;}
	.st4{fill:#FFFFFF;}
</style><g><path d="M76.5,82.2c-0.4,0.3-0.6,0.4-0.6,0.3L76.5,82.2z M61.6,10c0.1,0,0.1,0,0.2,0C61.6,10,61.6,10,61.6,10z M52.5,88.5   C52.5,88.5,52.5,88.5,52.5,88.5c0.1,0,0.1,0,0.2,0L52.5,88.5z M91.1,43.9c0-0.7-0.1-1.4-0.1-2.1c-0.1-0.8-0.2-1.6-0.4-2.5l0.1,0.2   c-0.4-2.1-1.1-3.8-1.6-5.3c-0.6-1.5-1.4-2.7-2.1-4c0.1-0.6-1.8-3.1-2.3-3.9l0.1,0.1c-0.9-1-1.6-2.1-2.5-3.2c-0.9-1-1.7-2.1-2.7-2.9   c0.1,0,0.2,0,0.3,0.2c-1.3-1.2-3-2.6-3-2.9c-0.9-0.7-1.9-1.4-2.9-2.1c-1-0.7-2.2-1.3-3.2-1.9c-2.2-1.1-4.3-2.1-5.7-2.3l0.2,0   c-0.8-0.2-1.3-0.3-1.8-0.5c-0.3-0.1-0.5-0.2-0.8-0.3c-0.3-0.1-0.7-0.2-1.1-0.2c-0.1-0.1-0.2-0.1-0.2-0.1c-0.4,0-1-0.1-1.5-0.3   c-0.6-0.1-1.2-0.3-1.8-0.4C57,9.2,55.8,9,55.1,8.9l-0.1-0.2c-1.2-0.1-2.3-0.1-3.5-0.2l1.3,0.1c-0.2,0.2-0.9,0.1-1.8,0   c-0.9-0.1-2.1-0.1-3.3,0.1c-1.2,0-2.3,0.4-3.5,0.8c-0.6,0.2-1.2,0.4-1.7,0.5c-0.6,0.2-1.1,0.4-1.7,0.5c-1.1,0.5,0.9-0.6-0.7,0   c-0.1-0.2,0.7-0.3,0.3-0.4c-0.8,0.3-1.5,0.4-2.2,0.6c-0.7,0.2-1.5,0.4-2.5,0.9l-0.1-0.1c-0.3,0.2-0.6,0.3-0.9,0.4   c-0.3,0.2-0.6,0.3-0.9,0.4c-0.6,0.3-1.2,0.5-1.7,0.8c-1.1,0.4-2,1-2.8,1.6c-2.4,1.6-1.9,0.6-4.1,2.6c-0.4,0.2-0.7,0.3-1.1,0.5   c-1,0.8-0.5,0.8-1.6,1.7c0-0.2-1.4,1.1-0.9,0.5c-0.7,0.5-1.2,1.1-1.7,1.7c-0.5,0.6-1.1,1.3-1.6,2c-1,1.5-2.2,2.9-3.4,4.7   c-0.1,0.5-0.5,1.1-0.8,1.8c-0.3,0.7-0.6,1.3-0.6,1.7c-0.1,0-0.5,1-0.9,1.7c-0.2,0.3-0.3,0.6-0.3,0.7c0,0-0.1-0.2,0.1-0.7   c0.1-0.2,0.2-0.5,0.3-0.5l0-0.3c-0.7,1-1,2.1-1.3,3.2c-0.2,0.5-0.3,1.1-0.5,1.6c-0.1,0.5-0.2,1.1-0.4,1.7c0.2-0.7,0.5-1.6,0.4-0.9   l-0.6,2.1l0-0.5l-0.5,1.6c-0.1,0.5-0.2,1.1-0.3,1.6l0.2-0.4c-0.2,0.8-0.3,1.3-0.5,1.9c-0.1,0.6-0.3,1.2-0.2,2.1   C9,47.3,9.2,45,9.2,46.7c-0.1,1.1-0.3,2.4-0.3,3.8c0,1.4,0,2.9,0.1,4.3c0.2-0.3,0.3,0.5,0.4,1.2l-0.2,0.1c0.7,2.9-0.3,1.2,0.6,4   l0.4,0.4c1,2.4,0,1.5,1.4,4.1c-0.4-1.1,0.2-0.6,0.6,0.7l-0.3-0.3c0.3,0.7,0.4,0.9,0.6,1.4c-0.3-0.4-0.3-0.1,0.2,0.9l-0.5-0.6   l1.2,1.8c0.1,0.4,0.3,0.9,0.6,1.3c0.3,0.4,0.5,0.9,0.8,1.3c0.5,0.8,0.9,1.5,1,1.9c0,0,0.1,0.2,0.3,0.5c0.2,0.3,0.5,0.7,0.8,1.1   c0.6,0.8,1.3,1.7,1.7,1.9c-0.6-0.4,0.7,1.1,0.2,0.8c0.4,0.3,1.1,0.9,1.7,1.6c0.6,0.7,1.4,1.3,1.7,1.8L22,80.7   c0.7,0.7,1.4,1.4,2.1,2c0.7,0.5,1.5,1,2.2,1.5c0.7,0.5,1.4,0.9,2.2,1.4c0.7,0.4,1.5,0.9,2.3,1.4c-0.1-0.3,1.7,0.7,1.3,0.3   c0.9,0.3,1.7,0.8,2.5,1.1c0.8,0.3,1.5,0.6,2.2,0.9c1.3,0.6,2.4,0.8,3.2,0.6c1.7,0.4,1.9,0.7,2.8,0.9l-0.4,0   c1.6,0.2,2.6,0.4,3.6,0.5c0.9,0.1,1.8,0.1,3,0.2c1.2,0,1.4-0.3,3.5-0.4c-0.7,0.2,0.2,0.1,1,0.1c-0.5,0-0.7,0.1,0.4,0.2   c0.1-0.1,0.4-0.1,0.6-0.1c0,0,0.1,0,0,0c1.3-0.2,1.1-0.2,0.5-0.1c0,0,0,0-0.2-0.1c1.4,0,3.8-0.6,4-0.4c3.9-0.9,6.6-2.1,9.5-3.6   c0.4,0-0.3,0.4-1.1,0.9l2.1-1.1c0.1,0.2-1.2,0.7-1.8,1c2.7-0.9,5.1-2.9,7.9-4.6l0.5-0.5l0.2-0.1c-0.1-0.1,0.5-0.6,0.8-0.9   c0.5-0.2,0.2,0.3,1.4-0.8c0.5-0.4,1.2-1,1.9-1.7c0.6-0.8,1.3-1.6,1.8-2.2c-0.6,0.7-0.5,0.4-0.3,0.1c0.5-0.6,1-0.8,1.3-1.4l0.2,0.1   c-0.4,0.1,1.1-1.8,1.2-2.1c0.4-0.3-0.6,1.1-0.7,1.3c2-2.6,1-1.3,2.7-4.1c0.8-1.6-0.3,0.2-0.1-0.6c0.4-0.7,0.7-1.4,1-2.1   c0.3-0.7,0.7-1.4,1.1-2.2c-0.1,0.1-0.3,0.3-0.4,0.4c0.9-2.7,1.5-4.3,2.2-6.1c0.1-0.7,0.2-1.3,0.3-1.9c0.1-0.6,0.1-1.2,0.1-1.7   c0.1-1,0.1-1.9,0.1-2.7c-0.1-1.6-0.2-2.6-0.3-3.3c-0.2-1.4-0.5-1.3-0.6-0.5c-0.2,0.7-0.4,2.1-0.5,3.3c0,0.6-0.2,1.1-0.3,1.5   c-0.1,0.4-0.1,0.6-0.1,0.6C88,59.3,87,62.1,86,65.1c-0.3,0.7-0.6,1.5-1,2.3c-0.3,0.8-0.7,1.6-1.2,2.4c-0.8,1.6-2,3.3-3.5,5.2   c-0.7,0.8-1.4,1.5-2,2.1c-0.6,0.6-1.3,1.1-1.8,1.6c-0.6,0.5-1.1,1-1.7,1.4c-0.6,0.4-1.1,0.8-1.7,1.2c-2.2,1.5-4.6,2.9-8.5,4.6   c-1,0.3-1.9,0.7-2.9,1c-1,0.3-2,0.5-3.1,0.8c-2.1,0.4-4.2,0.8-6.2,0.8c-0.5,0.1-1,0.2-1.7,0.2c-0.6,0-1.3,0-2-0.1   c-0.7,0-1.4-0.1-2-0.1c-0.7-0.1-1.3-0.2-1.9-0.2l-0.8-0.3c-0.4,0-0.8,0-1.2-0.1c-0.4-0.1-0.8-0.2-1.2-0.3l0.1,0   c-1.2-0.2-2.4-0.5-3-0.7l0.1,0l-1.3-0.5l0.3,0c-0.5-0.2-1-0.3-1.5-0.5l-0.7-0.2l-0.7-0.3c-0.9-0.4-1.8-0.9-2.6-1.3l0,0.2   c-3.3-2.2-4.8-2.7-7.3-5.2l0.1,0c-0.5-0.3-0.9-0.7-1.3-1c-0.4-0.3-0.8-0.7-1.1-1c-0.6-0.7-1.2-1.4-1.8-2.1c-0.6-0.7-1-1.5-1.6-2.3   c-0.3-0.4-0.6-0.8-0.9-1.2c-0.3-0.4-0.6-0.9-1-1.4c0.4,0.5,0-0.3,0-0.3c-0.3-0.5-0.6-0.9-0.9-1.3c-0.2-0.5-0.5-0.9-0.7-1.3   c-0.4-0.7-0.8-1.2-1-1.2c-0.4-0.7-0.4-1-0.4-1.2c0-0.2,0.1-0.2,0.1-0.3c-0.2,0.1-0.7-1.2-1.1-2.4l0.3,0.5c-0.5-1.1-0.7-2.2-1.1-3.4   l-0.1,0.8c-0.4-1.9,0.3-0.6-0.3-2.3L11.8,58c-0.2-1.3-0.2-2.3-0.2-3.4c0-0.5,0-1,0.1-1.6c0-0.5,0.1-1.1,0.1-1.7   c-0.1-5.2,0.6-10.6,2.4-15.6c1.8-5,4.8-9.5,8.3-12.8l0.4-0.2c0.3,0,1.6-2.1,2.1-2.2l0.7-0.9c0.3-0.1,0.9-0.5,0.5-0.1   c0.8-0.6,0.8-0.7,1.4-1.2l1-0.5c3.5-2.1,6.5-4,10.6-5.3c2.6-0.5,6.2-1.4,10-1.5l1.4-0.1c0.5,0,0.9,0,1.4,0c0.9,0,1.9,0,2.8,0.1   c0.9,0.1,1.7,0.2,2.6,0.3c0.4,0,0.8,0.1,1.2,0.1c0.4,0.1,0.7,0.2,1.1,0.2c3.9,0.6,7.9,2.5,11.5,4.9c3.6,2.4,6.7,5.4,9.5,8.3   c0.2,0.2,0.6,0.7,0.6,0.7l1.1,1.5c0.4,0.5,0.8,1,1,1.5c0.6,1.1,1.3,2.1,1.9,3.2c0,0,0.2,0.5,0.6,1.3c0.2,0.4,0.4,0.9,0.7,1.5   c0.2,0.6,0.5,1.2,0.7,1.9c1.1,2.7,1.9,6.3,2.4,9.1c0.3,2.8,0.6,4.7,0.9,4.3c0.2-0.2,0.3-1.1,0.5-2.8c0-0.4,0.1-0.9,0.1-1.4   C91.2,45.2,91.1,44.6,91.1,43.9z M80,20.4c0.1,0.1,0.2,0.2,0.3,0.3C80.2,20.6,80.1,20.5,80,20.4z M9.8,60.1   C9.8,60.1,9.8,60.1,9.8,60.1l-0.2-0.2L9.8,60.1z M42.3,15.6c-0.1,0.1-0.2,0.2-0.3,0.3c-0.1,0-0.3,0.1-0.4,0.1c0,0-0.1,0-0.1,0   c-0.2-0.1-0.5-0.2-0.9-0.2l0,0c-0.3,0.1-0.5,0.3-0.6,0.6c-0.2-0.1-0.2,0.2-0.3,0.2l0,0c0,0.3-0.4,0.3-0.4,0.5c0,0-0.1-0.1,0-0.1   c-0.1,0.2-0.1,0.4-0.3,0.3c-0.2,0.3-0.4,0.9-0.2,1.2l0,0c0.1,0.2,0,0.2,0.1,0.4c0,0,0,0,0,0c0.1,0.2,0.1,0.5,0.2,0.6l-0.1,0   c0,0.1,0.1,0.2,0.1,0.3l0-0.1c0.2-0.1-0.1,0.3,0.2,0.4c0.1,0.2,0.7,0,0.7,0.2c0.1,0-0.2,0.1,0,0.1c-0.1,0.1-0.1,0-0.1,0.1   c0.2,0,0.1,0.3,0.3,0.3l0,0.1c0.3,0,0.4,0.3,0.6,0.2c0.3,0,0.1,0.3,0.4,0.2l0.1,0.2c0.1,0,0.1-0.2,0.2-0.1c0,0.1,0.1,0.1,0.1,0.2   c0.3,0.2,0.6-0.2,0.9,0c0.1-0.2,0.2-0.1,0.3-0.2c0,0.1,0.3-0.1,0.2,0.1c0,0,0,0,0,0l0,0.1c0.2,0.1,0.3-0.2,0.5-0.2   c-0.1,0-0.1,0-0.1-0.1l0.2,0l0,0.1l0.3,0l-0.1-0.1c0.1,0,0.3,0.2,0.3,0c0-0.1-0.2-0.1-0.1-0.2c0.2,0,0.5,0,0.7-0.1   c-0.1-0.1,0-0.1,0-0.2l0.1,0.1c0.1-0.2,0.2,0.1,0.3-0.1l0-0.1c0.1-0.3,0.2,0.1,0.3-0.3c-0.1,0.1-0.2-0.1-0.1-0.2l0,0.1   c0-0.1,0-0.1,0.1-0.1c0,0.1,0.1,0.1,0.1,0l0,0.1l0-0.3c0.2,0,0.2-0.3,0.4-0.2c0,0,0.3-0.2,0.2-0.3c0,0.1,0.2,0,0.2,0.1   c0-0.1,0-0.4,0.2-0.4l0,0c0.3-0.3,0.2-0.6,0.4-0.9c-0.1,0,0-0.2-0.2-0.2c0-0.3,0.4-0.6,0-0.8c0-0.2,0.1-0.2,0.1-0.3l0,0   c-0.1-0.3-0.1-0.4-0.2-0.6c-0.1-0.1-0.3,0-0.3-0.2c0.1,0,0.1,0,0-0.1c0,0,0.1,0,0.1-0.1c0,0-0.1,0-0.1,0c0,0,0,0,0,0   c-0.1-0.1-0.1-0.1-0.1,0c0,0,0,0,0,0c0-0.2-0.2-0.3-0.1-0.4c-0.3-0.3-0.6-0.3-0.9-0.3c0-0.1,0.1-0.1,0.2-0.1c-0.1,0-0.1,0-0.2-0.1   c0-0.1,0.1,0,0.2,0c-0.2-0.3-0.5,0-0.8-0.3l-0.1,0.1l0,0c0,0-0.1,0.1-0.1,0.1c0-0.1,0-0.2-0.1-0.2c-0.1-0.1-0.3,0-0.5,0.1   c0.1,0,0,0.1,0,0.1c-0.1,0-0.1-0.1-0.2-0.1l0-0.1c0,0.1-0.2,0.1-0.2,0.2c0-0.1,0.1-0.1,0.1-0.2c-0.3,0-0.1,0-0.4,0   c-0.1,0.1,0,0.1,0,0.2c-0.1,0-0.2,0.1-0.4,0.1l0.1,0.1C42.6,15.7,42.5,15.7,42.3,15.6z M44.9,20.9C44.9,20.9,44.9,20.9,44.9,20.9   L44.9,20.9L44.9,20.9z M84.2,44L84.2,44c0.1-0.3,0.1-0.4,0.2-0.6c0-0.1-0.2-0.2-0.2-0.4c0.1,0.1,0.1,0,0.1-0.1c0,0,0,0.1,0.1,0   c0,0,0,0-0.1-0.1c0,0,0,0,0,0c0-0.1-0.1-0.1-0.1,0c0,0,0,0,0,0c0.1-0.1-0.1-0.4,0.1-0.4c-0.1-0.4-0.4-0.5-0.6-0.7   c0-0.1,0.1-0.1,0.2,0c0-0.1-0.1-0.1-0.1-0.2c0.1-0.1,0.1,0.1,0.2,0.1c0-0.3-0.4-0.3-0.5-0.6l-0.1,0l0,0c0,0-0.1,0-0.2,0   c0-0.1,0.1-0.2,0-0.2c0-0.1-0.3-0.1-0.4-0.2c0.1,0.1,0,0.1,0,0.1c-0.1,0,0-0.1-0.1-0.1l0.1-0.1c0,0.1-0.2,0-0.3,0.1   c0-0.1,0.1,0,0.2-0.1c-0.2-0.1-0.1-0.1-0.4-0.2c-0.2,0,0,0.1-0.1,0.2c-0.1,0-0.3,0-0.4-0.1l0,0.1c-0.2,0-0.3,0-0.5-0.2   c-0.2,0.1-0.3,0.1-0.4,0.2c-0.1,0-0.3,0-0.4-0.1c0,0-0.1,0-0.1,0c-0.1-0.2-0.3-0.4-0.7-0.6l0,0c-0.4-0.1-0.6,0-0.8,0.2   c-0.1-0.2-0.3,0-0.4,0l0,0c-0.1,0.2-0.5,0-0.6,0.3c0,0,0-0.1,0-0.1c-0.1,0.1-0.3,0.2-0.4,0.1c-0.3,0.2-0.8,0.6-0.8,0.9l0,0   c0,0.2-0.1,0.2-0.1,0.3c0,0,0,0,0,0c0,0.2-0.2,0.4-0.2,0.6l-0.1,0c0,0.1,0,0.2,0,0.3l0-0.1c0.2,0.1-0.2,0.2,0,0.5   c0,0.3,0.6,0.3,0.5,0.5c0.1,0-0.2,0-0.1,0.1c-0.1,0.1-0.1,0-0.2,0c0.1,0.1,0,0.3,0.1,0.4L76.6,44c0.3,0.1,0.2,0.5,0.4,0.5   c0.2,0.1-0.1,0.3,0.2,0.4l0,0.2c0.1,0.1,0.2-0.1,0.2,0c-0.1,0.1,0.1,0.1,0,0.2c0.2,0.3,0.6,0.1,0.8,0.5c0.1-0.1,0.3,0,0.4-0.1   c0,0.1,0.3,0.1,0.1,0.2c0,0,0,0,0,0l-0.1,0.1c0.1,0.2,0.4,0,0.6,0.1c0,0-0.1-0.1-0.1-0.1l0.2,0.1L79.2,46l0.3,0.1l0-0.1   c0.1,0.1,0.1,0.3,0.3,0.1c0.1-0.1-0.1-0.1,0-0.2c0.2,0.1,0.4,0.2,0.7,0.2c0-0.1,0-0.1,0.1-0.1l0,0.1c0.2-0.1,0.1,0.2,0.3,0.1l0-0.1   c0.2-0.2,0.1,0.2,0.4-0.1c-0.1,0-0.1-0.2,0-0.2l0,0.1c0.1,0,0.1-0.1,0.1-0.1c0,0.1,0,0.1,0.1,0.1l0,0.1l0.1-0.2   c0.2,0.1,0.3-0.1,0.4,0c0,0,0.3,0,0.3-0.2c0,0.1,0.1,0.1,0.1,0.2c0-0.1,0.2-0.3,0.4-0.3l0,0c0.4-0.1,0.5-0.5,0.8-0.6   c-0.1-0.1,0.1-0.2-0.1-0.2c0.1-0.3,0.7-0.3,0.3-0.7C84,44,84.2,44.1,84.2,44z M80.9,46.3C80.9,46.3,80.9,46.3,80.9,46.3L80.9,46.3   L80.9,46.3z M64,47.3C64,47.3,64,47.3,64,47.3L64,47.3L64,47.3z M65,44.4c-0.1-0.3,0.2-0.7-0.2-0.7c-0.1-0.1,0-0.2,0-0.3l0,0   c-0.2-0.3-0.2-0.4-0.3-0.6c-0.1-0.1-0.3,0-0.4-0.1c0.1,0,0-0.1,0-0.1c0,0,0.1,0,0-0.1c0,0-0.1,0-0.1,0c0,0,0,0,0,0   c-0.1-0.1-0.1,0-0.1,0c0,0,0,0,0,0.1c0-0.2-0.3-0.2-0.2-0.3c-0.4-0.2-0.7-0.1-0.9-0.1c0-0.1,0.1-0.1,0.1-0.1c-0.1,0-0.1,0-0.2,0   c0-0.1,0.1,0,0.2-0.1c-0.2-0.2-0.5,0.1-0.8,0L62,42l0,0c0,0-0.1,0.1-0.1,0.1c0-0.1,0-0.2-0.2-0.2c-0.1-0.1-0.3,0.1-0.4,0.2   c0.1,0,0.1,0.1,0,0.1c-0.1,0-0.1-0.1-0.2,0l0-0.1c0.1,0.1-0.1,0.2-0.1,0.2c-0.1-0.1,0.1-0.1,0.1-0.2c-0.3,0.1-0.1,0-0.4,0.1   c-0.1,0.1,0.1,0.1,0,0.2c-0.1,0.1-0.2,0.2-0.3,0.2l0.1,0.1c-0.2,0.2-0.3,0.2-0.5,0.2C60,43.1,60,43.2,60,43.3   c-0.1,0.1-0.2,0.2-0.3,0.2c0,0,0,0-0.1,0.1c-0.2-0.1-0.5-0.1-0.9,0.1l0,0c-0.3,0.2-0.4,0.4-0.4,0.7c-0.2-0.1-0.2,0.2-0.3,0.3l0,0   c0.1,0.3-0.3,0.4-0.3,0.6c0,0-0.1,0-0.1-0.1c0,0.2,0,0.4-0.2,0.4c-0.1,0.4-0.2,1,0.1,1.2l0,0c0.2,0.1,0,0.2,0.2,0.3c0,0,0,0,0,0   c0.2,0.1,0.2,0.4,0.3,0.5l-0.1,0.1c0.1,0.1,0.1,0.2,0.2,0.3L58,47.8c0.2-0.1,0,0.3,0.3,0.4c0.2,0.2,0.6-0.1,0.7,0   c0.1-0.1-0.2,0.1,0,0.1c0,0.1-0.1,0-0.1,0.2c0.2,0,0.2,0.2,0.4,0.2l0,0.1c0.3-0.1,0.4,0.2,0.6,0.1c0.2-0.1,0.2,0.3,0.4,0.1l0.1,0.1   c0.1,0,0.1-0.2,0.2-0.1c0,0.1,0.2,0,0.1,0.1c0.3,0.1,0.5-0.3,0.9-0.2c0-0.2,0.2-0.2,0.2-0.3c0,0.1,0.3-0.1,0.2,0.1c0,0,0,0,0,0   l0,0.1c0.3,0.1,0.3-0.3,0.5-0.3c-0.1,0-0.1,0-0.1,0l0.2-0.1l0,0.1l0.3-0.1l-0.1-0.1c0.1,0,0.3,0.1,0.3-0.1c0-0.1-0.2,0-0.1-0.1   c0.2,0,0.5-0.1,0.6-0.3c-0.1-0.1,0-0.1,0-0.2l0.1,0.1c0.1-0.3,0.2,0.1,0.3-0.2l-0.1-0.1c0-0.3,0.2,0,0.2-0.3c0,0.1-0.2-0.1-0.1-0.2   l0.1,0.1c0-0.1,0-0.1,0-0.1c0,0.1,0.1,0.1,0.1,0l0.1,0.1l0-0.2c0.2-0.1,0.2-0.3,0.3-0.3c0,0,0.2-0.2,0.1-0.4c0.1,0.1,0.2-0.1,0.2,0   c-0.1-0.1-0.1-0.4,0.1-0.4l0,0c0.2-0.3,0-0.7,0.2-1C65,44.5,65.1,44.4,65,44.4z M80.3,64c0,0,0,0.1,0.1,0   C80.4,63.9,80.4,63.9,80.3,64C80.4,63.9,80.4,63.9,80.3,64c0-0.2,0-0.2,0-0.1c0,0,0,0-0.1,0c0.1-0.1,0-0.4,0.1-0.4   c-0.1-0.4-0.3-0.6-0.5-0.8c0-0.1,0.1,0,0.2,0c0-0.1-0.1-0.1-0.1-0.2c0.1-0.1,0.1,0.1,0.2,0.1c0-0.3-0.4-0.4-0.4-0.7l-0.1,0v0   c0,0-0.1,0-0.2,0c0-0.1,0.2-0.1,0.1-0.2c0-0.1-0.3-0.2-0.4-0.2c0,0.1,0,0.1,0,0.1c-0.1,0,0-0.1-0.1-0.1l0.1-0.1   c-0.1,0.1-0.2,0-0.3,0c0-0.1,0.1,0,0.2-0.1c-0.2-0.1-0.1-0.1-0.3-0.2c-0.2,0,0,0.1-0.2,0.2c-0.1,0-0.3,0-0.3-0.1l0,0.1   c-0.2,0-0.3-0.1-0.4-0.2c-0.2,0-0.3,0.1-0.4,0.1c-0.1,0-0.3-0.1-0.4-0.1c0,0-0.1,0-0.1,0c-0.1-0.2-0.2-0.4-0.6-0.7l0,0   c-0.3-0.1-0.6-0.1-0.8,0.1c-0.1-0.2-0.3,0-0.4-0.1l0,0c-0.2,0.2-0.5-0.1-0.6,0.2c0,0,0-0.1,0-0.1c-0.1,0.1-0.3,0.2-0.4,0.1   c-0.3,0.2-0.9,0.5-0.9,0.8l0,0c0,0.2-0.1,0.2-0.2,0.3c0,0,0,0,0,0c0,0.2-0.2,0.4-0.2,0.6l-0.1,0c0,0.1-0.1,0.2-0.1,0.3l0.1-0.1   c0.2,0.1-0.2,0.2-0.1,0.5c-0.1,0.2,0.5,0.4,0.4,0.6c0.1,0.1-0.2,0-0.1,0.1c-0.1,0-0.1,0-0.2,0c0.1,0.1-0.1,0.3,0.1,0.4l-0.1,0   c0.3,0.1,0.1,0.5,0.3,0.5c0.2,0.1-0.1,0.3,0.2,0.4l0,0.2c0.1,0.1,0.2-0.1,0.2,0.1c-0.1,0.1,0.1,0.2,0,0.2c0.1,0.3,0.5,0.2,0.7,0.6   c0.2-0.1,0.3,0.1,0.4,0c0,0.1,0.3,0.2,0.1,0.2c0,0,0,0,0,0l-0.1,0.1c0.1,0.3,0.4,0.1,0.5,0.2c0-0.1-0.1-0.1,0-0.1l0.2,0.1l-0.1,0.1   l0.2,0.1l0-0.1c0.1,0.1,0.1,0.3,0.3,0.2c0.1-0.1-0.1-0.2,0.1-0.2c0.1,0.1,0.4,0.3,0.6,0.3c0-0.1,0.1-0.1,0.1-0.1l0,0.1   c0.3-0.1,0.1,0.2,0.3,0.1l0.1-0.1c0.2-0.2,0.1,0.2,0.4,0c-0.1,0,0-0.2,0.1-0.2l0,0.1c0.1,0,0.1-0.1,0.1,0c0,0.1,0,0.1,0.1,0.1   l-0.1,0.1l0.2-0.2c0.1,0.1,0.4-0.1,0.4,0.1c0,0,0.3,0,0.4-0.2c0,0.1,0.1,0.1,0.1,0.2c0.1-0.1,0.3-0.3,0.4-0.2l0,0   c0.4,0,0.5-0.4,0.9-0.5c-0.1-0.1,0.1-0.1,0-0.2c0.2-0.3,0.7-0.2,0.4-0.6c0.1-0.1,0.2-0.1,0.3-0.2l0,0c0.1-0.3,0.2-0.4,0.2-0.6   C80.4,64.3,80.2,64.3,80.3,64C80.3,64.2,80.3,64.1,80.3,64z M76.5,66.8C76.5,66.8,76.5,66.8,76.5,66.8L76.5,66.8L76.5,66.8z    M65.4,27.2C65.4,27.2,65.4,27.2,65.4,27.2L65.4,27.2L65.4,27.2z M69.2,24.3c0,0,0,0.1,0.1,0C69.3,24.3,69.3,24.3,69.2,24.3   C69.3,24.2,69.3,24.2,69.2,24.3c0-0.2,0-0.2,0-0.1c0,0,0,0-0.1,0c0.1-0.1,0-0.4,0.1-0.4c-0.1-0.4-0.3-0.6-0.5-0.8   c0-0.1,0.1,0,0.2,0c0-0.1-0.1-0.1-0.1-0.2C69,22.8,69,23,69.1,23c0-0.3-0.4-0.4-0.5-0.7l-0.1,0l0,0c0,0-0.1,0-0.2,0   c0-0.1,0.2-0.1,0.1-0.2c0-0.1-0.3-0.2-0.4-0.2c0,0.1,0,0.1,0,0.1c-0.1,0,0-0.1-0.1-0.1l0.1-0.1c-0.1,0.1-0.2,0-0.3,0   c0-0.1,0.1,0,0.2-0.1c-0.2-0.1-0.1-0.1-0.3-0.2c-0.2,0,0,0.1-0.2,0.2c-0.1,0-0.3,0-0.3-0.1l0,0.1c-0.2,0-0.3-0.1-0.4-0.2   c-0.2,0-0.3,0.1-0.4,0.1c-0.1,0-0.3-0.1-0.4-0.1c0,0-0.1,0-0.1,0c-0.1-0.2-0.2-0.4-0.6-0.7l0,0c-0.3-0.1-0.6-0.1-0.8,0.1   c-0.1-0.2-0.3,0-0.4,0l0,0c-0.2,0.2-0.5,0-0.6,0.2c0,0,0-0.1,0-0.1c-0.1,0.1-0.3,0.2-0.4,0.1C62.6,21,62,21.3,62,21.7l0,0   c0,0.2-0.1,0.2-0.2,0.3c0,0,0,0,0,0c0,0.2-0.2,0.4-0.2,0.6l-0.1,0c0,0.1-0.1,0.2-0.1,0.3l0.1-0.1c0.2,0.1-0.2,0.2-0.1,0.5   c-0.1,0.2,0.5,0.4,0.4,0.6c0.1,0.1-0.2,0-0.1,0.1c-0.1,0-0.1,0-0.2,0c0.1,0.1-0.1,0.3,0.1,0.4l-0.1,0c0.3,0.1,0.1,0.5,0.3,0.5   c0.2,0.1-0.1,0.3,0.2,0.4l0,0.2c0.1,0.1,0.2-0.1,0.2,0.1c-0.1,0.1,0.1,0.2,0,0.2c0.1,0.3,0.5,0.2,0.7,0.6c0.2-0.1,0.3,0.1,0.4,0   c0,0.1,0.3,0.2,0.1,0.2c0,0,0,0,0,0l-0.1,0.1c0.1,0.3,0.4,0.1,0.6,0.2c0-0.1-0.1-0.1,0-0.1l0.2,0.1l-0.1,0.1l0.2,0.1l0-0.1   c0.1,0.1,0.1,0.3,0.3,0.2c0.1-0.1-0.1-0.2,0.1-0.2c0.1,0.1,0.4,0.3,0.6,0.3c0-0.1,0.1-0.1,0.1-0.1l0,0.1c0.3-0.1,0.1,0.2,0.3,0.1   l0.1-0.1c0.2-0.2,0.1,0.2,0.4-0.1c-0.1,0,0-0.2,0.1-0.2l0,0.1c0.1,0,0.1-0.1,0.1,0c0,0.1,0,0.1,0.1,0.1L66,27.1l0.2-0.2   c0.2,0.1,0.4-0.1,0.4,0.1c0,0,0.3,0,0.4-0.2c0,0.1,0.1,0.1,0.1,0.2c0.1-0.1,0.3-0.3,0.4-0.2l0,0c0.4,0,0.5-0.4,0.9-0.5   c-0.1-0.1,0.1-0.1,0-0.2c0.2-0.3,0.7-0.3,0.4-0.6c0.1-0.1,0.2-0.1,0.3-0.2l0,0c0.1-0.3,0.2-0.4,0.2-0.6   C69.3,24.7,69.1,24.6,69.2,24.3C69.2,24.5,69.2,24.4,69.2,24.3z M20.1,40.4C20.1,40.4,20.1,40.4,20.1,40.4L20.1,40.4L20.1,40.4z    M20.6,40.5c-0.1,0,0.1-0.2,0.1-0.1L20.6,40.5c0.1,0,0.2-0.1,0.2,0c-0.1,0-0.1,0.1,0,0.1l-0.1,0.1l0.2-0.1c0.1,0.1,0.3,0.1,0.4,0.3   c0,0,0.3,0.2,0.4,0c-0.1,0.1,0.1,0.1,0,0.2c0.1-0.1,0.4-0.1,0.4,0l0,0c0.4,0.2,0.6-0.1,1,0c0-0.1,0.2-0.1,0.1-0.2   c0.3-0.2,0.7,0.1,0.7-0.4c0.1-0.1,0.2,0,0.3,0l0,0c0.3-0.2,0.3-0.3,0.5-0.4c0.1-0.1-0.1-0.3,0.1-0.4c0,0.1,0.1,0,0.1,0   c0,0,0,0.1,0.1,0c0,0,0-0.1,0-0.1c0,0,0,0,0,0c0-0.1,0-0.1,0-0.1c0,0,0,0-0.1,0c0.2-0.1,0.2-0.3,0.3-0.3c0.1-0.4,0-0.7-0.1-0.9   c0.1,0,0.1,0,0.2,0.1c0-0.1,0-0.1,0-0.2c0.1,0,0.1,0.1,0.1,0.2c0.2-0.3-0.2-0.5-0.1-0.8l-0.1,0l0,0c0,0-0.1,0-0.1-0.1   c0.1-0.1,0.2-0.1,0.2-0.2c0.1-0.1-0.1-0.3-0.2-0.4c0,0.1,0,0.1-0.1,0.1c0-0.1,0-0.1,0-0.2l0.1-0.1c-0.1,0.1-0.2-0.1-0.3-0.1   c0.1-0.1,0.1,0.1,0.2,0c-0.1-0.2-0.1-0.1-0.2-0.3c-0.2-0.1-0.1,0.1-0.2,0.1c-0.1-0.1-0.2-0.1-0.2-0.3l-0.1,0.1   c-0.2-0.1-0.3-0.2-0.3-0.4c-0.2,0-0.3-0.1-0.4-0.1c-0.1-0.1-0.2-0.2-0.3-0.3c0,0-0.1,0-0.1-0.1c0-0.2,0-0.5-0.2-0.9l0,0   c-0.3-0.3-0.5-0.4-0.8-0.3c0-0.2-0.3-0.1-0.3-0.2l0,0c-0.3,0.1-0.4-0.3-0.7-0.1c0,0,0-0.1,0.1-0.1c-0.2,0-0.4,0-0.4-0.1   c-0.4,0-1,0-1.2,0.3l0,0c-0.1,0.2-0.2,0.1-0.3,0.2c0,0,0,0,0,0c-0.1,0.2-0.4,0.2-0.5,0.4l-0.1-0.1c-0.1,0.1-0.2,0.2-0.2,0.2   l0.1-0.1c0.1,0.2-0.3,0.1-0.3,0.4c-0.2,0.2,0.3,0.6,0.1,0.7c0.1,0.1-0.2-0.1-0.1,0c-0.1,0-0.1-0.1-0.2-0.1c0,0.2-0.2,0.2-0.1,0.4   l-0.1,0c0.2,0.2-0.1,0.5,0.1,0.6c0.1,0.2-0.3,0.2,0,0.4l-0.1,0.1c0,0.1,0.2,0,0.2,0.2c-0.1,0,0,0.2-0.1,0.1c0,0.3,0.4,0.4,0.4,0.9   c0.2,0,0.2,0.2,0.3,0.2c-0.1,0,0.2,0.3,0,0.2c0,0,0,0,0,0l-0.1,0c0,0.3,0.3,0.2,0.4,0.4c0-0.1-0.1-0.1,0-0.1l0.1,0.1l-0.1,0   l0.2,0.2l0-0.1c0.1,0.1,0,0.3,0.2,0.3c0.1,0,0-0.2,0.1-0.1c0.1,0.2,0.2,0.4,0.4,0.6c0-0.1,0.1-0.1,0.2-0.1l-0.1,0.1   c0.3,0,0,0.2,0.2,0.3l0.1-0.1C20.5,40.3,20.2,40.6,20.6,40.5z M27.4,62.5c-0.1-0.1-0.2-0.3-0.1-0.4l0,0c0.1-0.4-0.2-0.6-0.2-1   c-0.1,0.1-0.1-0.1-0.2,0c-0.2-0.2-0.1-0.7-0.5-0.6c-0.1-0.1,0-0.2-0.1-0.3l0,0c-0.3-0.2-0.3-0.3-0.5-0.4c-0.1,0-0.2,0.1-0.4,0   c0.1-0.1,0-0.1-0.1-0.1c0,0,0.1,0,0-0.1c0,0,0,0-0.1,0c0,0,0,0,0,0c-0.1,0-0.1,0-0.1,0.1c0,0,0,0,0,0.1c-0.1-0.1-0.3-0.1-0.3-0.2   c-0.4,0-0.6,0.2-0.9,0.3c0-0.1,0-0.1,0.1-0.2c-0.1,0-0.1,0-0.2,0.1c0-0.1,0.1-0.1,0.2-0.1c-0.3-0.1-0.4,0.3-0.8,0.3l0,0.1l0,0   c0,0,0,0.1,0,0.2C23.1,60,23.1,59.9,23,60c-0.1,0-0.2,0.2-0.3,0.3c0.1,0,0.1,0,0.1,0.1c-0.1,0-0.1,0-0.2,0.1l-0.1-0.1   c0.1,0.1-0.1,0.2,0,0.3c-0.1,0,0-0.1,0-0.2c-0.2,0.2-0.1,0.1-0.3,0.3c0,0.2,0.1,0.1,0.1,0.2c-0.1,0.1-0.1,0.2-0.2,0.3l0.1,0   c-0.1,0.2-0.2,0.3-0.3,0.4c0,0.2,0,0.3,0,0.4c-0.1,0.1-0.1,0.2-0.2,0.3c0,0,0,0.1,0,0.1c-0.2,0-0.5,0.1-0.8,0.4l0,0   c-0.2,0.3-0.3,0.5-0.1,0.8c-0.2,0-0.1,0.3-0.1,0.4l0,0c0.2,0.2-0.2,0.5,0,0.7c0,0-0.1,0-0.1-0.1c0,0.2,0.1,0.4,0,0.4   c0.1,0.4,0.2,1,0.6,1.1l0,0c0.2,0.1,0.1,0.2,0.3,0.2c0,0,0,0,0,0c0.2,0,0.3,0.3,0.5,0.4l0,0.1c0.1,0.1,0.2,0.1,0.3,0.2l-0.1-0.1   c0.2-0.2,0.1,0.3,0.4,0.2c0.2,0.1,0.5-0.4,0.7-0.3c0.1-0.1-0.1,0.2,0.1,0.1c0,0.1-0.1,0.1,0,0.2c0.1-0.1,0.3,0.1,0.4,0l0,0.1   c0.2-0.2,0.5,0,0.6-0.2c0.2-0.2,0.3,0.2,0.4-0.1l0.2,0.1c0.1,0,0-0.2,0.1-0.2c0,0.1,0.2,0,0.1,0.1c0.3,0,0.3-0.5,0.8-0.5   c-0.1-0.2,0.1-0.2,0.1-0.4c0.1,0,0.2-0.3,0.2,0c0,0,0,0,0,0l0.1,0.1c0.3,0,0.2-0.4,0.3-0.5c-0.1,0-0.1,0.1-0.1,0l0.1-0.1l0,0.1   l0.2-0.2l-0.1,0c0.1-0.1,0.3,0,0.2-0.2c0-0.1-0.2,0-0.1-0.1c0.1-0.1,0.4-0.3,0.5-0.5c-0.1,0-0.1-0.1-0.1-0.1l0.1,0   c0-0.3,0.2,0,0.2-0.3L27,64c-0.1-0.3,0.2-0.1,0-0.4c0,0.1-0.2,0-0.2-0.1l0.1,0.1c0-0.1,0-0.1,0-0.1c0,0,0.1,0.1,0.1,0l0.1,0.1   l-0.1-0.2c0.1-0.1,0-0.4,0.2-0.4c0,0,0.1-0.3-0.1-0.4C27.3,62.6,27.3,62.4,27.4,62.5z M27.1,64.1C27.1,64.1,27.1,64.1,27.1,64.1   L27.1,64.1L27.1,64.1z M55,79.4C55,79.4,55,79.4,55,79.4L55,79.4L55,79.4z M56.6,76c0-0.2,0.1-0.2,0.1-0.3l0,0   c-0.1-0.3-0.1-0.4-0.2-0.6c-0.1-0.1-0.3,0-0.3-0.2c0.1,0,0.1,0,0-0.1c0,0,0.1,0,0.1-0.1c0,0-0.1,0-0.1,0c0,0,0,0,0,0   c-0.1-0.1-0.1-0.1-0.1,0c0,0,0,0,0,0c0-0.2-0.2-0.3-0.1-0.4c-0.3-0.3-0.6-0.3-0.9-0.3c0-0.1,0.1-0.1,0.2-0.1c-0.1,0-0.1,0-0.2-0.1   c0-0.1,0.1,0,0.2,0c-0.2-0.3-0.5,0-0.8-0.3l-0.1,0.1l0,0c0,0-0.1,0.1-0.1,0.1c0-0.1,0-0.2-0.1-0.2c-0.1-0.1-0.3,0-0.5,0.1   c0.1,0,0,0.1,0,0.1c-0.1,0-0.1-0.1-0.2-0.1l0-0.1c0,0.1-0.2,0.1-0.2,0.2c0-0.1,0.1-0.1,0.1-0.2c-0.3,0-0.1,0-0.4,0   c-0.1,0.1,0,0.1,0,0.2c-0.1,0-0.2,0.1-0.4,0.1l0.1,0.1c-0.2,0.1-0.3,0.1-0.5,0.1c-0.1,0.1-0.2,0.2-0.3,0.3c-0.1,0-0.3,0.1-0.4,0.1   c0,0-0.1,0-0.1,0c-0.2-0.1-0.5-0.2-0.9-0.2l0,0c-0.3,0.1-0.5,0.3-0.6,0.6c-0.2-0.1-0.2,0.2-0.3,0.2l0,0c0,0.3-0.4,0.3-0.4,0.5   c0,0-0.1-0.1,0-0.1c-0.1,0.2-0.1,0.4-0.3,0.3c-0.2,0.3-0.4,0.9-0.2,1.2l0,0c0.1,0.2,0,0.2,0.1,0.4c0,0,0,0,0,0   c0.1,0.2,0.1,0.5,0.2,0.6l-0.1,0c0,0.1,0.1,0.2,0.1,0.3l0-0.1c0.2-0.1-0.1,0.3,0.2,0.4c0.1,0.2,0.7,0,0.7,0.2c0.1,0-0.2,0.1,0,0.1   c-0.1,0.1-0.1,0-0.1,0.1c0.2,0,0.1,0.3,0.3,0.3l0,0.1c0.3,0,0.4,0.3,0.6,0.2c0.3,0,0.1,0.3,0.4,0.2l0.1,0.2c0.1,0,0.1-0.2,0.2-0.1   c0,0.1,0.1,0.1,0.1,0.2c0.3,0.2,0.6-0.2,0.9,0c0.1-0.2,0.2-0.1,0.3-0.2c0,0.1,0.3-0.1,0.2,0.1c0,0,0,0,0,0l0,0.1   c0.2,0.1,0.3-0.2,0.5-0.2c-0.1,0-0.1,0-0.1-0.1l0.2,0l0,0.1l0.3,0l-0.1-0.1c0.1,0,0.3,0.2,0.3,0c0-0.1-0.2-0.1-0.1-0.2   c0.2,0,0.5,0,0.7-0.1c-0.1-0.1,0-0.1,0-0.2l0.1,0.1c0.1-0.2,0.2,0.1,0.3-0.1l0-0.1c0.1-0.3,0.2,0.1,0.3-0.3   c-0.1,0.1-0.2-0.1-0.1-0.2l0,0.1c0-0.1,0-0.1,0.1-0.1c0,0.1,0.1,0.1,0.1,0l0,0.1l0-0.3c0.2,0,0.2-0.3,0.4-0.2c0,0,0.3-0.2,0.2-0.3   c0,0.1,0.2,0,0.2,0.1c0-0.1,0-0.4,0.2-0.4l0,0c0.3-0.3,0.2-0.6,0.4-0.9c-0.1,0,0-0.2-0.2-0.2C56.6,76.4,57.1,76.1,56.6,76z    M41.5,40.2c0.1-0.1,0.1-0.3,0.3-0.3c0,0.1,0,0.1,0.1,0c0,0,0,0.1,0.1,0.1c0,0,0-0.1,0-0.1c0,0,0,0,0,0c0.1-0.1,0.1-0.1,0-0.1   c0,0,0,0,0,0c0.2,0,0.3-0.2,0.4-0.1c0.3-0.2,0.4-0.5,0.5-0.8c0.1,0,0.1,0.1,0.1,0.2c0-0.1,0.1-0.1,0.1-0.2c0.1,0.1,0,0.1,0,0.2   c0.3-0.1,0.2-0.5,0.4-0.7l-0.1-0.1l0,0c0,0-0.1-0.1-0.1-0.1c0.1,0,0.2,0.1,0.2-0.1c0.1-0.1,0.1-0.3,0-0.5c0,0.1-0.1,0-0.1,0   c0-0.1,0.1-0.1,0.1-0.1l0.1,0c-0.1,0-0.1-0.2-0.1-0.2c0.1,0,0.1,0.1,0.1,0.1c0-0.3,0-0.1,0-0.4c-0.1-0.1-0.1,0-0.2-0.1   c0-0.1-0.1-0.2,0-0.4l-0.1,0c-0.1-0.2-0.1-0.3,0-0.5c-0.1-0.1-0.2-0.2-0.3-0.3c0-0.1,0-0.3-0.1-0.4c0,0,0-0.1,0-0.1   c0.1-0.1,0.3-0.4,0.4-0.9l0,0c0-0.4-0.1-0.6-0.4-0.7c0.2-0.2-0.1-0.3-0.1-0.4l0,0c-0.3-0.1-0.2-0.5-0.4-0.5c0,0,0.1,0,0.1,0   c-0.1-0.1-0.3-0.2-0.2-0.3c-0.3-0.2-0.8-0.6-1.1-0.5l0,0c-0.2,0.1-0.2,0-0.4,0c0,0,0,0,0,0c-0.2,0.1-0.5,0-0.6,0l0-0.1   c-0.1,0-0.2,0-0.3,0.1l0.1,0c0,0.2-0.3-0.1-0.5,0.1c-0.2,0.1-0.2,0.6-0.4,0.6c0,0.1,0-0.2-0.1,0c-0.1-0.1,0-0.1-0.1-0.2   c-0.1,0.1-0.3,0.1-0.3,0.3l-0.1-0.1c0,0.3-0.4,0.3-0.3,0.5c0,0.2-0.3,0-0.3,0.3l-0.2,0c-0.1,0.1,0.1,0.1,0,0.2   c-0.1,0-0.1,0.1-0.2,0c-0.2,0.2,0,0.6-0.2,0.9c0.2,0.1,0,0.3,0.2,0.3c-0.1,0,0,0.4-0.2,0.2c0,0,0,0,0,0l-0.1,0   c-0.2,0.2,0.1,0.4,0.1,0.6c0-0.1,0-0.1,0.1-0.1l0,0.2l-0.1,0l0,0.3l0.1-0.1c0,0.1-0.2,0.2,0,0.3c0.1,0.1,0.1-0.1,0.2,0   c0,0.2-0.1,0.5,0,0.7c0.1-0.1,0.1,0,0.2,0.1l-0.1,0c0.2,0.2-0.2,0.2,0,0.4l0.1,0c0.3,0.1-0.1,0.2,0.2,0.3c-0.1-0.1,0.2-0.1,0.2,0   l-0.1,0c0,0,0.1,0,0.1,0.1c-0.1,0-0.1,0-0.1,0.1l-0.1,0l0.2,0.1c0,0.2,0.2,0.3,0.1,0.4c0,0,0.1,0.3,0.3,0.3c-0.1,0,0,0.2-0.1,0.2   c0.1,0,0.4,0.1,0.4,0.3l0,0c0.2,0.4,0.6,0.3,0.8,0.6c0-0.1,0.2,0,0.2-0.1c0.3,0,0.5,0.5,0.8,0.1c0.2,0,0.2,0.1,0.3,0.2l0,0   C41.2,40.2,41.3,40.2,41.5,40.2z M37.7,37.7C37.7,37.7,37.7,37.7,37.7,37.7L37.7,37.7L37.7,37.7z M48.5,60.4   c0.2-0.3-0.2-0.5-0.1-0.8l-0.1,0l0,0c0,0-0.1,0-0.1-0.1c0.1-0.1,0.2-0.1,0.1-0.2c0-0.1-0.2-0.3-0.3-0.4c0,0.1,0,0.1-0.1,0.1   c0-0.1,0-0.1,0-0.2l0.1-0.1c-0.1,0.1-0.2-0.1-0.3-0.1c0.1-0.1,0.1,0,0.2,0c-0.2-0.2-0.1-0.1-0.2-0.3c-0.2-0.1-0.1,0.1-0.2,0.1   c-0.1-0.1-0.2-0.1-0.3-0.3l-0.1,0.1c-0.2-0.1-0.3-0.2-0.3-0.4c-0.2,0-0.3-0.1-0.4-0.1c-0.1-0.1-0.2-0.2-0.3-0.3c0,0-0.1,0-0.1-0.1   c0-0.2-0.1-0.5-0.3-0.9l0,0c-0.3-0.2-0.5-0.3-0.8-0.2c0-0.2-0.3-0.1-0.3-0.2l0,0c-0.2,0.1-0.4-0.2-0.7-0.1c0,0,0-0.1,0.1-0.1   c-0.2,0-0.4,0.1-0.4-0.1c-0.4,0-1,0.1-1.2,0.4l0,0c-0.1,0.2-0.2,0.1-0.3,0.2c0,0,0,0,0,0c-0.1,0.2-0.4,0.3-0.4,0.4l-0.1-0.1   c-0.1,0.1-0.1,0.2-0.2,0.3l0.1-0.1c0.2,0.2-0.3,0.1-0.3,0.4c-0.1,0.2,0.3,0.6,0.1,0.7c0.1,0.1-0.2-0.1-0.1,0   c-0.1,0-0.1-0.1-0.2-0.1c0,0.2-0.2,0.2-0.1,0.4l-0.1,0c0.2,0.2-0.1,0.5,0.1,0.6c0.1,0.2-0.3,0.2,0,0.4L41,59.8c0,0.1,0.2,0,0.2,0.2   c-0.1,0,0,0.2-0.1,0.1c0,0.3,0.4,0.4,0.4,0.8c0.2,0,0.2,0.2,0.3,0.1c-0.1,0.1,0.2,0.3,0,0.2c0,0,0,0,0,0l-0.1,0   c0,0.3,0.3,0.2,0.4,0.4c0-0.1-0.1-0.1,0-0.1l0.1,0.1l-0.1,0l0.2,0.2l0-0.1c0.1,0.1,0,0.3,0.2,0.3c0.1,0,0-0.2,0.1-0.1   c0.1,0.2,0.3,0.4,0.4,0.6c0-0.1,0.1-0.1,0.2-0.1l0,0.1c0.3,0,0,0.2,0.2,0.3l0.1-0.1c0.3-0.1,0,0.2,0.4,0.1c-0.1,0,0-0.2,0.1-0.1   L44,62.7c0.1,0,0.1,0,0.1,0c-0.1,0-0.1,0.1,0,0.1l-0.1,0.1l0.2-0.1c0.1,0.1,0.4,0.1,0.4,0.2c0,0,0.3,0.1,0.4,0   c-0.1,0.1,0.1,0.1,0,0.2c0.1-0.1,0.3-0.1,0.4,0l0,0c0.4,0.1,0.6-0.2,1-0.1c0-0.1,0.2-0.1,0.1-0.2c0.3-0.2,0.8,0.1,0.7-0.4   c0.1-0.1,0.2,0,0.3,0l0,0c0.2-0.2,0.3-0.3,0.5-0.5c0-0.1-0.1-0.3,0-0.4c0,0.1,0.1,0,0.1,0c0,0,0,0.1,0.1,0c0,0,0-0.1,0-0.1   c0,0,0,0,0,0c0-0.1,0-0.1,0-0.1c0,0,0,0-0.1,0c0.2-0.1,0.1-0.3,0.3-0.3c0.1-0.4-0.1-0.7-0.1-0.9C48.3,60.3,48.4,60.3,48.5,60.4   c-0.1,0-0.1-0.1-0.1-0.2C48.5,60.2,48.5,60.3,48.5,60.4z M43.5,62.8C43.5,62.8,43.5,62.8,43.5,62.8L43.5,62.8L43.5,62.8z"/></g><text x="0" y="115" fill="#000000" font-size="5px" font-weight="bold" font-family="'Helvetica Neue', Helvetica, Arial-Unicode, Arial, Sans-serif">Created by RROOK</text><text x="0" y="120" fill="#000000" font-size="5px" font-weight="bold" font-family="'Helvetica Neue', Helvetica, Arial-Unicode, Arial, Sans-serif">from the Noun Project</text></svg>